<?xml version="1.0" encoding="UTF-8"?>
<svg id="Family" xmlns="http://www.w3.org/2000/svg" viewBox="0 0 720 720">
  <defs>
    <style>
      .cls-1 {
        fill: #2a5eea;
        stroke-width: 0px;
      }
    </style>
  </defs>
  <path class="cls-1" d="M267.95,368.4c1.37-.53,3.04-2.19,4.55-4.11,44.92-61.77,123.85-55.6,175.38-8.33,1.78,1.69,5.07,4.58,6.82,2.94,1.13-.79,2.04-3.21,2.6-4.87,11.32-32.92,23.97-67.24,51.38-89.74,12.44-10.13,28.89-18.55,44.74-20.81,59.57-9.15,101.44,56.65,95.42,111.68-.71,8.43-2.36,16.54-4.64,24.45-15.63,53.23-44.11,109.98-84.79,148.25-22.49,19.94-46.64,38.78-74.47,50.47-3.98,1.67-8.04,3.15-12.13,4.53-23.08,7.53-46.11,16.14-70.11,20.2-90.28,15.08-181.58.54-240.81-72.3-48.72-57.09-106.76-131.84-87.55-211.3,9.78-32.98,35.38-63.72,67.95-72.27,12.05-3.41,25.75-2.34,38.38-1,54.76,6.19,79.91,68.12,83.5,118.5.36,2.28,1.59,4.63,3.67,3.75l.12-.04ZM250.83,573.4c.99,1.78,2.9,2.91,4.81,3.7,65.8,26.05,158.59,15.44,219.35-19.56,3.17-2.12,4.34-5.13,4.04-9.04-4.43-44.33-9.51-89.08-21.98-132.02-3.06-10.91-6.41-22.29-12.66-31.81-16.36-25.77-47.73-42.33-78.12-48.33-30.32-4.72-59.93,9.84-78.86,32.66-7.52,9.56-13.96,21.08-19.25,32.24-5.33,11.06-7.85,22.65-9.19,34.66-5.85,43.15-8.12,87.19-9.28,130.52-.08,2.29.02,5.01,1.06,6.85l.07.13ZM233.34,564.91c1.52-1.08,1.67-4.22,1.61-6.37-.55-53.79,12.19-105.86,10.69-159.4-.36-20.12-.33-40.65-4.45-60.23-3.94-18.52-12.56-38.44-24.82-52.5-28.21-33.31-78.35-31.34-107.57-.51-14.08,14.13-24.6,37.42-24.73,58.68,6.86,85.48,63.2,158.28,128.29,210.48,4.71,3.77,15.18,12.92,20.87,9.94l.1-.08ZM495.36,546.83c1.38.74,3.63-.26,5.15-1.11,14.45-8,26.25-18.38,39.85-27.55,10.92-7.1,18.65-16.73,26.69-27.33,23.96-32.65,41.2-74.87,55.71-110.02,1.5-3.71,2.95-7.7,4.05-11.71,11.45-39.72-5.65-88.72-44.79-105.56-5.97-2.22-12.09-3.06-18.73-2.83-57.96.59-79.78,61.49-93.2,110.45-2.13,6.7-3.39,13.7-1.42,20.64,15.06,49.27,21.92,97.12,24.78,148.91.09,2.01.39,5.33,1.82,6.06l.09.05Z"/>
  <path class="cls-1" d="M354.21,283.62c-84.25-6.24-32.55-145.37,45.46-98.11,16.1,12.97,24.82,41.73,19.85,62.32-1.91,8.58-7.59,15.67-14.3,21.31-13.09,11.38-31.92,14.93-50.79,14.49h-.22ZM357.98,268.16c50.59,4.26,57.27-75.06,6.16-75.25-19.96-.25-33.51,18.83-35.62,37.16-2.65,19.98,7.55,37.65,29.24,38.08h.22Z"/>
  <path class="cls-1" d="M548.63,111.61c98-2.87,43.78,148.93-28.96,102.49-25.81-18.18-28.3-59.38-10.63-83.84,8.23-12.01,23.52-19.31,39.35-18.65h.24ZM545.37,204.99c10.31.5,19.8-4.03,26.63-11.97,16.45-18.1,19.75-55.87-8.07-64.65-47.86-18.16-72.58,77.53-18.77,76.61h.21Z"/>
  <path class="cls-1" d="M216.45,174.6c1.88,18.83-4.7,30.99-20.61,40.53-20.22,12.31-40.38,18.42-60.91,4.15-11.42-8.12-17.35-20.14-18.96-33.96-11.66-81.13,107.42-93.49,100.47-10.95v.23ZM201.16,169.89c2.18-24.79-24.22-45.57-46.95-32.82-19.6,12.69-31.25,47.24-13.99,65.9,8.33,8.97,21.45,10.3,32.68,6.32,16.52-5.57,28.82-21.25,28.25-39.21v-.2Z"/>
</svg>